<?xml version="1.0" encoding="UTF-8"?>
<!-- Generated by Pixelmator Pro 3.5.7 -->
<svg width="31" height="31" viewBox="0 0 31 31" xmlns="http://www.w3.org/2000/svg">
    <linearGradient id="linearGradient1" x1="15.653108" y1="30.987254" x2="15.653108" y2="-0.017162" gradientUnits="userSpaceOnUse">
        <stop offset="0" stop-color="#1c70f2" stop-opacity="1"/>
        <stop offset="1" stop-color="#1ac9fb" stop-opacity="1"/>
    </linearGradient>
    <path id="Path" fill="url(#linearGradient1)" fill-rule="evenodd" stroke="none" d="M 0 13.7778 C 0 7.28286 0 4.035419 2.0177 2.0177 C 4.03542 0 7.28286 0 13.7778 0 L 17.2222 0 C 23.7171 0 26.964701 0 28.982201 2.0177 C 31 4.035419 31 7.28286 31 13.7778 L 31 17.2222 C 31 23.7171 31 26.964701 28.982201 28.982201 C 26.964701 31 23.7171 31 17.2222 31 L 13.7778 31 C 7.28286 31 4.03542 31 2.0177 28.982201 C 0 26.964701 0 23.7171 0 17.2222 L 0 13.7778 Z M 25.8333 7.75 C 25.8333 9.176739 24.676701 10.3333 23.25 10.3333 C 21.823299 10.3333 20.6667 9.176739 20.6667 7.75 C 20.6667 6.323259 21.823299 5.16667 23.25 5.16667 C 24.676701 5.16667 25.8333 6.323259 25.8333 7.75 Z M 18.944401 17.2222 C 18.944401 19.124599 17.402399 20.6667 15.5 20.6667 C 13.5976 20.6667 12.0556 19.124599 12.0556 17.2222 C 12.0556 15.3199 13.5976 13.7778 15.5 13.7778 C 17.402399 13.7778 18.944401 15.3199 18.944401 17.2222 Z M 22.388901 17.2222 C 22.388901 21.0268 19.3046 24.111099 15.5 24.111099 C 11.6954 24.111099 8.61111 21.0268 8.61111 17.2222 C 8.61111 13.4177 11.6954 10.3333 15.5 10.3333 C 19.3046 10.3333 22.388901 13.4177 22.388901 17.2222 Z"/>
</svg>
